<?xml version="1.0" encoding="utf-8"?>
<svg viewBox="339.2701 820.8452 1318.7843 144.3924" xmlns="http://www.w3.org/2000/svg">
  <defs>
    <clipPath clipPathUnits="userSpaceOnUse" id="clipPath22">
      <path d="M 0,1000 H 1500 V 0 H 0 Z" id="path20"/>
    </clipPath>
  </defs>
  <g id="g12" transform="matrix(1.9574462674188453, 0, 0, -2.2641796435880224, 424.5247639563458, 911.4310491163341)" style="">
    <path d="M 0,0 19.47,20.062 26.127,0 Z M 35.912,38.651 H 15.265 l -58.819,-61.058 h 22.218 l 8.417,8.311 h 42.766 l 2.93,-8.311 h 22.119 z" style="fill:#333333;fill-opacity:1;fill-rule:nonzero;stroke:none" id="path14"/>
  </g>
  <g id="g16" style="" transform="matrix(1.6723956253379129, 0, 0, -2.364788763175966, -234.74552563867474, 1697.0972029447148)">
    <g id="g18" clip-path="url(#clipPath22)">
      <g id="g24" transform="translate(556.4048,370.541)">
        <path d="M 0,0 -15.271,-46.971 H -59.305 L -44.04,0 h -20.647 l -16.342,-50.099 c -0.592,-1.958 -0.656,-3.62 -0.198,-4.994 0.458,-1.366 1.289,-2.493 2.494,-3.374 1.212,-0.881 2.691,-1.535 4.452,-1.958 1.761,-0.423 3.656,-0.634 5.677,-0.634 h 53.53 c 1.824,0 3.768,0.225 5.825,0.683 2.057,0.458 3.994,1.155 5.818,2.106 1.832,0.945 3.445,2.1 4.847,3.473 1.402,1.366 2.395,2.938 2.987,4.698 L 20.745,0 Z" style="fill:#333333;fill-opacity:1;fill-rule:nonzero;stroke:none" id="path26"/>
      </g>
      <g id="g28" transform="translate(586.7373,370.541)">
        <path d="M 0,0 -4.6,-14.088 H 22.704 L 7.438,-61.059 H 28.085 L 43.35,-14.088 H 71.435 L 76.035,0 Z" style="fill:#333333;fill-opacity:1;fill-rule:nonzero;stroke:none" id="path30"/>
      </g>
      <g id="g32" transform="translate(721.7817,323.5703)">
        <path d="m 0,0 h -44.033 l 10.664,32.883 h 44.041 z m 32.495,40.708 c -0.529,1.374 -1.388,2.529 -2.592,3.474 -1.212,0.95 -2.692,1.648 -4.46,2.105 -1.76,0.458 -3.55,0.684 -5.381,0.684 h -53.529 c -2.022,0 -4.057,-0.211 -6.115,-0.634 -2.057,-0.423 -3.98,-1.078 -5.776,-1.958 -1.796,-0.881 -3.36,-2.008 -4.698,-3.375 -1.332,-1.373 -2.332,-3.036 -2.98,-4.994 L -65.758,-3.128 c -0.592,-1.958 -0.655,-3.62 -0.197,-4.994 0.458,-1.366 1.289,-2.493 2.494,-3.374 1.211,-0.881 2.69,-1.535 4.452,-1.958 1.76,-0.423 3.655,-0.634 5.677,-0.634 H 0.197 c 1.824,0 3.769,0.225 5.825,0.683 2.058,0.458 3.995,1.155 5.819,2.106 1.832,0.945 3.445,2.1 4.846,3.473 1.402,1.366 2.396,2.937 2.987,4.698 L 32.396,36.01 c 0.585,1.761 0.62,3.332 0.099,4.698" style="fill:#333333;fill-opacity:1;fill-rule:nonzero;stroke:none" id="path34"/>
      </g>
      <g id="g36" transform="translate(849.8311,364.8213)">
        <path d="m 0,0 c -0.296,1.007 -0.796,1.937 -1.515,2.789 -0.718,0.846 -1.598,1.55 -2.641,2.1 -1.042,0.556 -2.156,0.831 -3.332,0.831 h -74.957 l -4.6,-14.088 h 62.827 c 0.458,0 0.845,-0.134 1.176,-0.395 0.324,-0.26 0.423,-0.521 0.289,-0.782 l -2.931,-9.003 c -0.196,-0.781 -0.95,-1.176 -2.253,-1.176 h -62.828 l -11.545,-35.615 h 20.746 l 6.945,21.428 h 51.281 c 1.698,0 3.41,0.212 5.136,0.634 1.732,0.423 3.36,1.091 4.895,2.007 1.529,0.916 2.916,2.121 4.157,3.622 1.239,1.5 2.218,3.296 2.937,5.381 L 0.05,-2.889 C 0.31,-1.979 0.296,-1.015 0,0" style="fill:#6a6a6a;fill-opacity:1;fill-rule:nonzero;stroke:none" id="path38"/>
      </g>
      <g id="g40" transform="translate(941.9687,364.8213)">
        <path d="m 0,0 c -0.331,1.007 -0.852,1.937 -1.57,2.789 -0.719,0.846 -1.578,1.55 -2.593,2.1 C -5.17,5.445 -6.233,5.72 -7.34,5.72 h -72.322 l -4.601,-14.088 h 59.109 c 0.521,0 0.943,-0.134 1.274,-0.395 0.324,-0.26 0.423,-0.521 0.296,-0.782 l -2.937,-9.003 c -0.197,-0.781 -0.979,-1.176 -2.353,-1.176 h -59.101 l -11.552,-35.615 h 20.745 l 6.953,21.329 h 12.919 l 21.815,-21.329 h 27.699 l -19.963,21.329 c 2.479,0 4.937,0.212 7.388,0.634 2.445,0.423 4.713,1.113 6.798,2.058 2.092,0.943 3.931,2.169 5.529,3.67 1.6,1.5 2.755,3.296 3.474,5.381 L 0.099,-2.889 C 0.353,-1.979 0.324,-1.015 0,0" style="fill:#6a6a6a;fill-opacity:1;fill-rule:nonzero;stroke:none" id="path42"/>
      </g>
      <g id="g44" transform="translate(1003.9092,323.5703)">
        <path d="m 0,0 h -44.033 l 10.664,32.883 h 44.041 z m 32.494,40.708 c -0.528,1.374 -1.388,2.529 -2.598,3.474 -1.206,0.95 -2.692,1.648 -4.453,2.105 -1.76,0.458 -3.557,0.684 -5.381,0.684 h -53.53 c -2.021,0 -4.064,-0.211 -6.114,-0.634 -2.057,-0.423 -3.98,-1.078 -5.776,-1.958 -1.796,-0.881 -3.36,-2.008 -4.699,-3.375 -1.338,-1.373 -2.331,-3.036 -2.979,-4.994 L -65.758,-3.128 c -0.592,-1.958 -0.655,-3.62 -0.197,-4.994 0.458,-1.366 1.289,-2.493 2.493,-3.374 1.205,-0.881 2.691,-1.535 4.452,-1.958 1.762,-0.423 3.656,-0.634 5.678,-0.634 H 0.197 c 1.824,0 3.769,0.225 5.825,0.683 2.05,0.458 3.995,1.155 5.819,2.106 1.824,0.945 3.444,2.1 4.846,3.473 1.402,1.366 2.395,2.937 2.987,4.698 L 32.396,36.01 c 0.584,1.761 0.613,3.332 0.098,4.698" style="fill:#6a6a6a;fill-opacity:1;fill-rule:nonzero;stroke:none" id="path46"/>
      </g>
      <g id="g48" transform="translate(1131.4229,364.2783)">
        <path d="m 0,0 c -0.528,1.374 -1.388,2.529 -2.592,3.474 -1.212,0.95 -2.691,1.648 -4.452,2.105 -1.761,0.458 -3.558,0.684 -5.382,0.684 h -53.536 c -2.021,0 -4.058,-0.211 -6.114,-0.634 -2.057,-0.423 -3.981,-1.078 -5.777,-1.958 -1.789,-0.881 -3.36,-2.008 -4.691,-3.375 -1.338,-1.373 -2.339,-3.036 -2.986,-4.994 l -12.722,-39.138 c -0.592,-1.958 -0.655,-3.62 -0.197,-4.994 0.457,-1.366 1.289,-2.493 2.493,-3.374 1.212,-0.881 2.69,-1.535 4.452,-1.958 1.761,-0.423 3.656,-0.634 5.678,-0.634 h 53.528 c 1.832,0 3.769,0.225 5.826,0.683 2.057,0.458 3.994,1.155 5.826,2.106 1.824,0.944 3.437,2.1 4.839,3.473 1.402,1.366 2.402,2.937 2.987,4.698 l 3.325,10.172 h -20.746 l -2.247,-7.044 h -44.04 l 10.665,32.883 h 44.04 l -2.353,-7.144 h 20.752 l 3.325,10.271 C 0.486,-2.938 0.521,-1.366 0,0" style="fill:#6a6a6a;fill-opacity:1;fill-rule:nonzero;stroke:none" id="path50"/>
      </g>
    </g>
  </g>
</svg>